<svg xmlns="http://www.w3.org/2000/svg" viewBox="0 0 200 60" width="200" height="60">
  <defs>
    <linearGradient id="logoGradient" x1="0%" y1="0%" x2="100%" y2="100%">
      <stop offset="0%" stop-color="#8154c9" />
      <stop offset="50%" stop-color="#4285f4" />
      <stop offset="100%" stop-color="#60a5fa" />
    </linearGradient>
    <linearGradient id="quillGradient" x1="0%" y1="0%" x2="100%" y2="100%">
      <stop offset="0%" stop-color="#ffcc40" />
      <stop offset="100%" stop-color="#ffaa33" />
    </linearGradient>
    <filter id="shadow" x="-20%" y="-20%" width="140%" height="140%">
      <feDropShadow dx="0" dy="1" stdDeviation="1" flood-color="#000" flood-opacity="0.15" />
    </filter>
  </defs>
  
  <!-- Grid-aligned SVG content -->
  <g>
    <!-- Quill/Pen Shape - Positioned on a grid -->
    <g transform="translate(12, 15) scale(0.8) rotate(-45)" filter="url(#shadow)">
      <!-- Pen body -->
      <path d="M0,0 L20,0 L25,5 L30,0 L50,0 L50,15 L40,25 L0,25 Z" fill="url(#logoGradient)" />
      <!-- Pen tip -->
      <path d="M0,25 L0,35 L15,25 Z" fill="url(#quillGradient)" />
      <!-- Ink dot -->
      <circle cx="45" cy="10" r="3" fill="#ffcc40" />
    </g>
    
    <!-- BlogHub text - Positioned on a grid -->
    <g transform="translate(58, 29)">
      <!-- Blog -->
      <path d="M4.7,13V0.6h4.6c1.2,0,2.1,0.1,2.7,0.4c0.6,0.3,1.1,0.7,1.5,1.3c0.4,0.6,0.5,1.2,0.5,1.9c0,0.9-0.3,1.7-0.8,2.3c-0.6,0.6-1.4,1-2.6,1.1c0.4,0.3,0.8,0.5,1,0.8c0.5,0.5,1,1.2,1.5,2l2.3,3.5h-3l-1.8-2.7c-0.5-0.8-1-1.4-1.3-1.8c-0.3-0.4-0.6-0.7-0.9-0.8c-0.3-0.2-0.5-0.3-0.8-0.3c-0.2,0-0.5,0-0.9,0h-0.4V13H4.7zM7.2,6.5h1.6c1,0,1.7-0.1,2-0.2c0.3-0.1,0.6-0.3,0.8-0.5c0.2-0.3,0.3-0.6,0.3-0.9c0-0.5-0.2-0.9-0.5-1.2c-0.3-0.3-0.9-0.4-1.7-0.4H7.2V6.5z" fill="#444444" />
      <path d="M22.3,13h-2.5V0.6h2.5V13z" fill="#444444" />
      <path d="M32.4,13c-0.6,0-1.1-0.1-1.6-0.3c-0.5-0.2-0.9-0.5-1.3-0.9c-0.3-0.3-0.6-0.7-0.8-1.1c-0.2-0.4-0.3-0.8-0.3-1.3c0-1.1,0.4-2,1.3-2.8c0.9-0.7,2.2-1.1,3.9-1.1h1.9v-0.4c0-0.6-0.2-1-0.5-1.3c-0.3-0.3-0.8-0.4-1.5-0.4c-0.6,0-1.1,0.1-1.5,0.3c-0.4,0.2-0.6,0.5-0.7,0.9l-2.3-0.3c0.1-0.6,0.4-1.1,0.8-1.6c0.4-0.5,0.9-0.8,1.6-1.1c0.7-0.3,1.5-0.4,2.4-0.4c0.7,0,1.4,0.1,2,0.2c0.6,0.2,1.1,0.4,1.5,0.7c0.4,0.3,0.7,0.7,0.9,1.1c0.2,0.4,0.3,1,0.3,1.6V13h-2.4v-1.6h-0.1c-0.2,0.5-0.6,0.9-1.2,1.3C33.9,12.9,33.2,13,32.4,13z M33.1,11c0.7,0,1.2-0.2,1.7-0.6c0.5-0.4,0.7-0.9,0.7-1.5v-1h-1.7c-0.7,0-1.2,0.1-1.6,0.4c-0.4,0.3-0.5,0.6-0.5,1.1c0,0.4,0.2,0.8,0.5,1C32.5,10.8,32.8,11,33.1,11z" fill="#444444" />
    
      <!-- Hub -->
      <g transform="translate(44, 0)">
        <path d="M7.1,5.8c0.7,0.4,1.3,0.9,1.7,1.5c0.4,0.7,0.6,1.4,0.6,2.2c0,0.8-0.2,1.6-0.6,2.2c-0.4,0.7-1,1.1-1.7,1.5c-0.7,0.3-1.6,0.5-2.5,0.5h-5.3V0.6h5c0.9,0,1.8,0.2,2.5,0.5c0.7,0.3,1.3,0.8,1.7,1.4c0.4,0.6,0.6,1.3,0.6,2.1c0,0.8-0.2,1.5-0.7,2.1C8.1,7.3,7.7,5.4,7.1,5.8z M2.2,5.7h1.8c0.6,0,1.1-0.1,1.4-0.4c0.3-0.3,0.5-0.7,0.5-1.1c0-0.5-0.2-0.9-0.5-1.1c-0.3-0.3-0.8-0.4-1.4-0.4H2.2V5.7z M4.6,10.9c0.6,0,1.1-0.1,1.4-0.4c0.3-0.3,0.5-0.7,0.5-1.2c0-0.5-0.2-0.9-0.5-1.2c-0.3-0.3-0.8-0.4-1.4-0.4H2.2v3.2H4.6z" fill="url(#logoGradient)" />
        <path d="M20.2,5.3h2.5v5.8c0,0.8-0.2,1.5-0.6,2.1c-0.4,0.6-1,1-1.7,1.3c-0.7,0.3-1.6,0.5-2.6,0.5c-1,0-1.9-0.2-2.7-0.5c-0.7-0.3-1.3-0.8-1.7-1.3c-0.4-0.6-0.6-1.3-0.6-2.1V5.3h2.5v5.5c0,0.6,0.2,1.1,0.6,1.5c0.4,0.4,0.9,0.5,1.6,0.5c0.7,0,1.2-0.2,1.5-0.5c0.4-0.4,0.5-0.9,0.5-1.5V5.3z" fill="url(#logoGradient)" />
        <path d="M32.9,13c-0.6,0-1.1-0.1-1.6-0.3c-0.5-0.2-0.9-0.5-1.3-0.9c-0.3-0.3-0.6-0.7-0.8-1.1c-0.2-0.4-0.3-0.8-0.3-1.3c0-1.1,0.4-2,1.3-2.8c0.9-0.7,2.2-1.1,3.9-1.1h1.9v-0.4c0-0.6-0.2-1-0.5-1.3c-0.3-0.3-0.8-0.4-1.5-0.4c-0.6,0-1.1,0.1-1.5,0.3c-0.4,0.2-0.6,0.5-0.7,0.9l-2.3-0.3c0.1-0.6,0.4-1.1,0.8-1.6c0.4-0.5,0.9-0.8,1.6-1.1c0.7-0.3,1.5-0.4,2.4-0.4c0.7,0,1.4,0.1,2,0.2c0.6,0.2,1.1,0.4,1.5,0.7c0.4,0.3,0.7,0.7,0.9,1.1c0.2,0.4,0.3,1,0.3,1.6V13h-2.4v-1.6h-0.1c-0.2,0.5-0.6,0.9-1.2,1.3C34.4,12.9,33.7,13,32.9,13z M33.6,11c0.7,0,1.2-0.2,1.7-0.6c0.5-0.4,0.7-0.9,0.7-1.5v-1h-1.7c-0.7,0-1.2,0.1-1.6,0.4c-0.4,0.3-0.5,0.6-0.5,1.1c0,0.4,0.2,0.8,0.5,1C32.9,10.8,33.2,11,33.6,11z" fill="url(#logoGradient)" />
      </g>
    </g>
  </g>
</svg> 